<svg width="87" height="87" viewBox="0 0 87 87" fill="none" xmlns="http://www.w3.org/2000/svg">
<path d="M26 77L32 58H55L52.9583 51H25.5L17.5 77H26Z" fill="#444444"/>
<path d="M55 58L60.5 77H69.5L49 10H41L52.9583 51L55 58Z" fill="#444444"/>
<path d="M24.5385 44.7492L23 48.8517L33.2564 48.8517V51.9286H34.2821V48.8517C34.7949 48.3389 36.3333 49.3645 39.9231 45.262C41.4615 43.2107 40.9487 40.6466 40.9487 38.0825V37.0568L43 36.0312H40.9487L40.4359 35.0056C38.3846 31.3133 34.7949 33.4671 34.2821 35.5184L30.6923 44.7492H24.5385Z" fill="#444444"/>
<circle cx="38.25" cy="36.7054" r="1.25" fill="white"/>
<path d="M32.7373 48.5019C30.9837 46.4824 30.8746 46.189 31.0455 45.3429L33.5674 38.1667L39.0611 39.466C38.8368 41.556 39.0611 39.466 38.687 42.9487C38.5674 44.0623 37.6565 44.6673 36.8797 45.2727C36.6118 45.6251 35.0568 46.657 32.7373 48.5019Z" fill="#444444"/>
</svg>
